<svg width="24" height="23" viewBox="0 0 24 23" fill="none" xmlns="http://www.w3.org/2000/svg">
<g clip-path="url(#clip0_42_705)">
<path d="M18.79 22.4995C18.6219 22.5 18.4561 22.4617 18.3059 22.3877L12.0008 19.1621L5.69576 22.3877C5.52807 22.4734 5.33937 22.5115 5.15085 22.4977C4.96232 22.484 4.78144 22.4189 4.6285 22.3099C4.47556 22.2008 4.35661 22.0521 4.28502 21.8804C4.21343 21.7087 4.19203 21.5208 4.22322 21.3378L5.39067 14.4433L0.305928 9.54087C0.170253 9.41144 0.0742282 9.24731 0.0287361 9.06707C-0.016756 8.88682 -0.00989662 8.69768 0.0485369 8.52106C0.10697 8.34445 0.214642 8.18743 0.359349 8.0678C0.504057 7.94816 0.680015 7.8707 0.867284 7.84419L7.90864 6.78626L11.0897 0.550453C11.1749 0.385056 11.3051 0.246089 11.466 0.149004C11.6269 0.0519186 11.812 0.000518799 12.0008 0.000518799C12.1897 0.000518799 12.3748 0.0519186 12.5357 0.149004C12.6966 0.246089 12.8268 0.385056 12.912 0.550453L16.093 6.78626L23.1344 7.82822C23.3217 7.85473 23.4976 7.9322 23.6423 8.05183C23.787 8.17146 23.8947 8.32848 23.9531 8.50509C24.0116 8.68171 24.0184 8.87085 23.9729 9.0511C23.9275 9.23134 23.8314 9.39548 23.6958 9.5249L18.6232 14.4433L19.7907 21.3378C19.8149 21.4805 19.8071 21.6268 19.768 21.7663C19.7289 21.9058 19.6593 22.0353 19.5641 22.1458C19.4689 22.2563 19.3504 22.3452 19.2167 22.4063C19.083 22.4674 18.9374 22.4992 18.79 22.4995V22.4995Z" fill="#B1B1B1"/>
</g>
<defs>
<clipPath id="clip0_42_705">
<rect width="24" height="22.5" fill="white"/>
</clipPath>
</defs>
</svg>
