<svg width="16" height="15" viewBox="0 0 16 15" fill="none" xmlns="http://www.w3.org/2000/svg">
<path d="M2.34501 8.08304H1.68556C1.239 8.08304 0.810683 7.90583 0.494657 7.59032C0.178631 7.27481 0.000724944 6.84678 0 6.40021L0 3.26167C0.000724944 2.8151 0.178631 2.38708 0.494657 2.07156C0.810683 1.75605 1.239 1.57884 1.68556 1.57884H2.34501V8.08304Z" fill="#7E7E7E"/>
<path d="M3.58464 1.57884L4.88165 0.664915C5.49222 0.230911 6.22309 -0.0015531 6.97219 -7.60229e-06H11.9824C12.435 -0.00070073 12.8766 0.138909 13.2466 0.399605C13.6166 0.660301 13.8967 1.02926 14.0483 1.45571L15.8707 6.56713C15.9898 6.89813 16.0275 7.25298 15.9804 7.60161C15.9333 7.95025 15.8029 8.28241 15.6002 8.56994C15.3975 8.85748 15.1285 9.09193 14.8159 9.25343C14.5034 9.41493 14.1565 9.49872 13.8047 9.49771H9.60999V11.539C9.61107 11.9395 9.5332 12.3363 9.38084 12.7068C9.22847 13.0772 9.0046 13.4139 8.72202 13.6978C8.43943 13.9817 8.10368 14.207 7.73395 14.3611C7.36421 14.5151 6.96775 14.5947 6.56721 14.5954C6.25901 14.5947 5.96363 14.472 5.7457 14.254C5.52776 14.0361 5.40501 13.7407 5.40429 13.4325V10.7181C5.40431 10.6111 5.36869 10.5071 5.30304 10.4226L3.4834 8.08304L3.58464 1.57884Z" fill="#7E7E7E"/>
</svg>
