<svg width="16" height="15" viewBox="0 0 16 15" fill="none" xmlns="http://www.w3.org/2000/svg">
<path d="M2.34504 6.51239H1.6856C1.46332 6.51239 1.24324 6.55634 1.03802 6.64174C0.832804 6.72713 0.646501 6.85226 0.489838 7.00994C0.333176 7.16762 0.209247 7.35473 0.125186 7.5605C0.0411252 7.76626 -0.0014078 7.98663 3.55398e-05 8.2089V11.3337C0.000760483 11.7803 0.178666 12.2083 0.494691 12.5239C0.810717 12.8394 1.23903 13.0166 1.6856 13.0166H2.34504V6.51239Z" fill="#05D686"/>
<path d="M3.58445 13.0166L4.88145 13.9332C5.49292 14.3651 6.22338 14.5965 6.97199 14.5954H11.9822C12.4354 14.5957 12.8776 14.4553 13.2476 14.1936C13.6177 13.9318 13.8974 13.5617 14.0481 13.1342L15.8704 8.01736C15.9896 7.68636 16.0272 7.33151 15.9802 6.98287C15.9331 6.63424 15.8027 6.30208 15.6 6.01454C15.3973 5.72701 15.1283 5.49256 14.8157 5.33106C14.5032 5.16956 14.1563 5.08577 13.8045 5.08678H9.60978V3.0455C9.60906 2.23848 9.28834 1.46468 8.71794 0.893772C8.14755 0.322865 7.37404 0.00144855 6.56701 0C6.25881 0.000722642 5.96343 0.123477 5.7455 0.341412C5.52756 0.559346 5.40481 0.854722 5.40409 1.16293V3.88007C5.40392 3.98623 5.36829 4.08928 5.30284 4.17286L3.48047 6.51239L3.58445 13.0166Z" fill="#05D686"/>
</svg>
