<svg width="16" height="15" viewBox="0 0 16 15" fill="none" xmlns="http://www.w3.org/2000/svg">
<g clip-path="url(#clip0_27_933)">
<path d="M12.5263 14.9999C12.4143 15.0001 12.3038 14.9746 12.2036 14.9253L8.00024 12.7749L3.79685 14.9253C3.68505 14.9825 3.55926 15.0078 3.43357 14.9987C3.30789 14.9895 3.1873 14.9461 3.08534 14.8734C2.98338 14.8007 2.90408 14.7016 2.85636 14.5871C2.80863 14.4726 2.79436 14.3474 2.81515 14.2254L3.59346 9.62904L0.203627 6.36076C0.113176 6.27448 0.04916 6.16505 0.0188319 6.04489C-0.0114962 5.92473 -0.00692326 5.79863 0.0320324 5.68089C0.0709881 5.56315 0.142769 5.45847 0.239241 5.37871C0.335713 5.29896 0.453018 5.24732 0.577864 5.22964L5.2721 4.52435L7.39278 0.367149C7.44958 0.256884 7.53643 0.16424 7.64367 0.0995165C7.75091 0.034793 7.87434 0.000526428 8.00024 0.000526428C8.12613 0.000526428 8.24956 0.034793 8.3568 0.0995165C8.46404 0.16424 8.55089 0.256884 8.60769 0.367149L10.7284 4.52435L15.4226 5.21899C15.5475 5.23667 15.6648 5.28831 15.7612 5.36807C15.8577 5.44782 15.9295 5.5525 15.9684 5.67024C16.0074 5.78799 16.012 5.91408 15.9816 6.03425C15.9513 6.15441 15.8873 6.26383 15.7968 6.35012L12.4151 9.62904L13.1935 14.2254C13.2096 14.3205 13.2044 14.418 13.1783 14.511C13.1523 14.604 13.1059 14.6904 13.0424 14.7641C12.979 14.8377 12.8999 14.897 12.8108 14.9377C12.7217 14.9784 12.6246 14.9996 12.5263 14.9999Z" fill="#05D686"/>
</g>
<defs>
<clipPath id="clip0_27_933">
<rect width="16" height="15" fill="white"/>
</clipPath>
</defs>
</svg>
